#!OML:ASF H:\Terrain\Patient Classification 1\Animal1\Tuesday\Animal1.ASF
:FULLY-SPECIFIED
:DEGREES
434
root 20.4556 12.9607 -13.4396 27.4273 -22.9612 3.18105
lowerback 43.2832 -2.01126 -2.89464
upperback -1.68131 -5.16592 -4.08708
thorax -23.7894 -1.88958 -0.39945
lowerneck -8.46252 12.2614 1.74818
upperneck -32.3775 14.151 -13.4727
head -7.53061 7.81724 -5.22579
rclavicle 4.05521e-014 2.78299e-014
rhumerus 72.2148 -21.0345 -66.6768
rradius 118.838
rwrist 22.7471
rhand 56.139 -14.6028
rfingers 7.12502
rthumb 73.3383 5.06982
lclavicle 4.05521e-014 2.78299e-014
lhumerus 43.2385 -47.3483 82.7614
lradius 103.034
lwrist -73.5799
lhand 49.3755 62.8096
lfingers 7.12502
lthumb 69.5376 59.9654
rfemur -114.761 -13.8812 30.1744
rtibia 91.9483
rfoot 35.8886 16.1578
rtoes 4.93669
lfemur -81.5378 -13.3184 -19.646
ltibia 86.6844
lfoot -27.3687 24.5134
ltoes 6.14394
435
root 20.4542 12.9566 -13.439 27.5202 -22.9672 3.2653
lowerback 43.1102 -2.03493 -2.84886
upperback -1.73227 -5.1805 -4.13185
thorax -23.806 -1.90563 -0.471149
lowerneck -8.52684 12.0172 1.64638
upperneck -32.8339 13.7999 -13.3316
head -7.73103 7.64256 -5.20123
rclavicle 3.49861e-014 4.85035e-014
rhumerus 72.0969 -20.8874 -66.7833
rradius 118.683
rwrist 23.2275
rhand 55.9704 -13.9382
rfingers 7.12502
rthumb 73.2655 5.22757
lclavicle 3.49861e-014 4.85035e-014
lhumerus 42.9929 -47.3683 82.867
lradius 103.193
lwrist -73.6639
lhand 49.4217 62.6593
lfingers 7.12502
lthumb 69.5686 59.7232
rfemur -114.984 -13.8871 30.1544
rtibia 91.9805
rfoot 36.0344 15.7303
rtoes 5.62191
lfemur -81.666 -13.3328 -19.675
ltibia 86.6273
lfoot -27.1472 24.6409
ltoes 4.95053
436
root 20.4532 12.9677 -13.435 27.3883 -22.9632 3.18631
lowerback 43.3237 -1.99322 -2.80205
upperback -1.7805 -5.10025 -4.06413
thorax -23.9506 -1.8706 -0.456249
lowerneck -8.66765 11.8295 1.6228
upperneck -33.0949 13.5047 -13.3232
head -7.82606 7.49532 -5.20707
rclavicle -6.20208e-014 -7.07673e-014
rhumerus 72.018 -20.7931 -66.7328
rradius 118.629
rwrist 23.1961
rhand 55.9768 -13.8379
rfingers 7.12502
rthumb 73.2683 5.34688
lclavicle -6.20208e-014 -7.07673e-014
lhumerus 42.7878 -47.2749 83.057
lradius 103.319
lwrist -73.5112
lhand 49.5858 62.6391
lfingers 7.12502
lthumb 69.6782 59.3742
rfemur -114.673 -13.9116 30.1939
rtibia 91.9431
rfoot 35.9965 15.6222
rtoes 5.61846
lfemur -81.4134 -13.294 -19.656
ltibia 86.5514
lfoot -27.1713 24.6832
ltoes 4.21255
437
root 20.4501 12.9777 -13.4307 27.3002 -22.9612 3.20991
lowerback 43.4513 -1.95165 -2.82117
upperback -1.80366 -5.05631 -4.03014
thorax -24.0253 -1.84629 -0.428128
lowerneck -8.739 11.7033 1.74336
upperneck -33.4464 13.2554 -13.4806
head -7.93314 7.37241 -5.2995
rclavicle -3.81667e-014 3.33958e-014
rhumerus 71.9408 -20.8931 -66.5727
rradius 118.569
rwrist 23.0524
rhand 55.9483 -13.8233
rfingers 7.12502
rthumb 73.2558 5.27631
lclavicle -3.81667e-014 3.33958e-014
lhumerus 42.7412 -47.1912 83.1491
lradius 103.328
lwrist -73.4279
lhand 50.0606 62.3429
lfingers 7.12502
lthumb 69.9913 58.1059
rfemur -114.486 -13.9449 30.1513
rtibia 91.931
rfoot 35.9145 15.5773
rtoes 5.90814
lfemur -81.2316 -13.3107 -19.703
ltibia 86.454
lfoot -27.3872 24.5571
ltoes 4.68815
438
root 20.4471 12.9787 -13.4283 27.3372 -22.9873 3.46729
lowerback 43.274 -1.95918 -2.9176
upperback -1.81119 -5.12876 -4.11011
thorax -23.9706 -1.87086 -0.434458
lowerneck -8.85901 11.5925 1.69357
upperneck -33.7836 13.0808 -13.4418
head -8.05735 7.28752 -5.30012
rclavicle -7.39479e-014 -5.48646e-014
rhumerus 71.8423 -20.9155 -66.6426
rradius 118.534
rwrist 22.9764
rhand 56.0193 -13.768
rfingers 7.12502
rthumb 73.2867 5.54424
lclavicle -7.39479e-014 -5.48646e-014
lhumerus 42.769 -47.2543 83.0375
lradius 103.317
lwrist -73.6213
lhand 49.8756 61.791
lfingers 7.12502
lthumb 69.87 57.9364
rfemur -114.716 -14.0161 29.9389
rtibia 91.9767
rfoot 36.0027 15.2827
rtoes 6.63735
lfemur -81.2998 -13.4428 -19.8745
ltibia 86.3246
lfoot -27.2462 24.6121
ltoes 4.25263
439
root 20.4459 12.9847 -13.4285 27.2375 -22.9816 3.69471
lowerback 43.3518 -1.9972 -2.98024
upperback -1.84981 -5.23597 -4.17963
thorax -24.0611 -1.90479 -0.421486
lowerneck -9.09332 11.4996 1.70692
upperneck -33.8495 12.9499 -13.3663
head -8.06006 7.20837 -5.26676
rclavicle 8.42847e-014 -6.59965e-014
rhumerus 71.7823 -20.6581 -66.8667
rradius 118.587
rwrist 23.0496
rhand 56.0538 -13.6264
rfingers 7.12502
rthumb 73.3017 5.78944
lclavicle 8.42847e-014 -6.59965e-014
lhumerus 42.6895 -47.2526 83.0057
lradius 103.424
lwrist -73.8569
lhand 50.1201 61.821
lfingers 7.12502
lthumb 70.0301 57.46
rfemur -114.751 -14.1412 29.7514
rtibia 92.0046
rfoot 35.9895 15.326
rtoes 6.18823
lfemur -81.1824 -13.5822 -20.0395
ltibia 86.1652
lfoot -27.0597 24.6439
ltoes 3.89769
440
root 20.4424 12.9914 -13.4312 27.1332 -22.921 3.78108
lowerback 43.5584 -2.02004 -2.99601
upperback -1.88367 -5.28448 -4.16973
thorax -24.1868 -1.91369 -0.369703
lowerneck -9.33252 11.3405 1.84053
upperneck -33.8874 12.705 -13.3472
head -8.04442 7.06302 -5.26689
rclavicle 1.82882e-014 3.97569e-015
rhumerus 71.7576 -20.4485 -66.9623
rradius 118.908
rwrist 22.6288
rhand 56.9748 -14.3719
rfingers 7.12502
rthumb 73.6788 7.87939
lclavicle 1.82882e-014 3.97569e-015
lhumerus 42.5435 -47.1234 83.1672
lradius 103.562
lwrist -73.9777
lhand 51.4666 61.9452
lfingers 7.12502
lthumb 70.8808 54.6429
rfemur -114.666 -14.2148 29.703
rtibia 92.0227
rfoot 35.8386 15.6126
rtoes 5.2378
lfemur -81.0264 -13.629 -20.0918
ltibia 86.0373
lfoot -27.1563 24.4642
ltoes 4.46197
441
root 20.4369 12.9924 -13.4332 27.1636 -22.7842 3.77274
lowerback 43.635 -2.06541 -2.93252
upperback -1.89949 -5.30241 -4.12537
thorax -24.239 -1.92136 -0.338711
lowerneck -9.59915 11.17 1.79744
upperneck -34.0422 12.481 -13.1695
head -8.09605 6.93451 -5.19778
rclavicle 7.87187e-014 -3.89618e-014
rhumerus 71.8094 -20.3925 -67.0822
rradius 119.429
rwrist 21.1968
rhand 59.3752 -16.5896
rfingers 7.12502
rthumb 74.453 13.6302
lclavicle 7.87187e-014 -3.89618e-014
lhumerus 42.5595 -47.0469 83.161
lradius 103.556
lwrist -73.9473
lhand 52.0603 61.938
lfingers 7.12502
lthumb 71.2382 53.2543
rfemur -114.676 -14.2772 29.7693
rtibia 92.046
rfoot 35.8197 15.4233
rtoes 5.65662
lfemur -81.057 -13.6742 -20.0138
ltibia 85.9861
lfoot -27.1801 24.4064
ltoes 4.18382
442
root 20.4317 12.9911 -13.4334 27.1436 -22.683 3.96469
lowerback 43.636 -2.10972 -2.9738
upperback -1.91494 -5.39168 -4.16243
thorax -24.2639 -1.95059 -0.310155
lowerneck -9.87463 11.0609 1.70595
upperneck -34.2187 12.3613 -12.9459
head -8.15498 6.85949 -5.10751
rclavicle -5.56597e-015 1.11319e-014
rhumerus 71.6198 -20.3722 -66.8609
rradius 118.97
rwrist 22.7704
rhand 57.3001 -14.409
rfingers 7.12502
rthumb 73.8019 8.8748
lclavicle -5.56597e-015 1.11319e-014
lhumerus 42.6239 -47.1002 83.0492
lradius 103.506
lwrist -73.9314
lhand 51.7682 62.213
lfingers 7.12502
lthumb 71.0638 54.2157
rfemur -114.781 -14.4325 29.6573
rtibia 92.1007
rfoot 35.8473 15.101
rtoes 6.33807
lfemur -81.0968 -13.8491 -20.101
ltibia 85.9378
lfoot -27.0125 24.5348
ltoes 3.41466
443
root 20.4285 12.9901 -13.4345 27.2352 -22.6544 4.07965
lowerback 43.4826 -2.09235 -2.99207
upperback -1.96242 -5.37836 -4.17346
thorax -24.2721 -1.94591 -0.323836
lowerneck -9.97069 10.8955 1.66885
upperneck -34.4123 12.131 -12.84
head -8.24051 6.73856 -5.07674
rclavicle 5.48646e-014 0
rhumerus 71.4879 -20.4817 -66.6112
rradius 118.737
rwrist 23.1391
rhand 55.5709 -13.948
rfingers 7.12502
rthumb 73.0877 4.03452
lclavicle 5.48646e-014 0
lhumerus 42.599 -47.2017 83.0695
lradius 103.48
lwrist -73.8253
lhand 51.5491 62.3337
lfingers 7.12502
lthumb 70.9312 54.8426
rfemur -114.963 -14.4669 29.6104
rtibia 92.1244
rfoot 35.9479 14.9138
rtoes 7.15043
lfemur -81.2351 -13.9343 -20.12
ltibia 85.8965
lfoot -27.011 24.5048
ltoes 3.66078
444
root 20.4269 12.9916 -13.4378 27.4058 -22.6006 3.97356
lowerback 43.3136 -2.10622 -2.81478
upperback -2.0162 -5.29917 -4.16836
thorax -24.3001 -1.94024 -0.458902
lowerneck -9.81283 10.6944 1.77371
upperneck -34.6723 11.8075 -12.8879
head -8.37172 6.57517 -5.13941
rclavicle -6.44062e-014 -5.24792e-014
rhumerus 71.3224 -20.5018 -66.5016
rradius 118.853
rwrist 22.5922
rhand 55.2419 -14.9777
rfingers 7.12502
rthumb 72.9358 2.04951
lclavicle -6.44062e-014 -5.24792e-014
lhumerus 42.5071 -47.2951 83.0533
lradius 103.419
lwrist -73.6211
lhand 51.3653 62.236
lfingers 7.12502
lthumb 70.8187 55.1643
rfemur -115.068 -14.4008 29.7657
rtibia 92.0954
rfoot 35.9944 15.0265
rtoes 7.20943
lfemur -81.4086 -13.8833 -19.9664
ltibia 85.8773
lfoot -27.066 24.4384
ltoes 3.91114
445
root 20.4249 12.9944 -13.4414 27.4846 -22.5589 3.96829
lowerback 43.205 -2.14673 -2.68341
upperback -2.00916 -5.29495 -4.2347
thorax -24.2715 -1.96315 -0.611535
lowerneck -9.82908 10.5451 1.89228
upperneck -34.8757 11.5623 -12.9264
head -8.44983 6.44466 -5.18548
rclavicle 3.73715e-014 -1.35174e-014
rhumerus 71.2432 -20.4487 -66.527
rradius 118.969
rwrist 22.0832
rhand 55.9435 -15.6629
rfingers 7.12502
rthumb 73.2537 3.42238
lclavicle 3.73715e-014 -1.35174e-014
lhumerus 42.5737 -47.3945 82.7954
lradius 103.352
lwrist -73.484
lhand 50.7167 62.3537
lfingers 7.12502
lthumb 70.4136 56.7219
rfemur -115.139 -14.3896 29.818
rtibia 92.06
rfoot 35.9536 14.8785
rtoes 6.8456
lfemur -81.488 -13.8671 -19.9288
ltibia 85.8481
lfoot -26.7628 24.5892
ltoes 4.22986
446
root 20.4234 12.9979 -13.4426 27.4893 -22.6185 3.98376
lowerback 43.2143 -2.12006 -2.70445
upperback -2.01592 -5.27948 -4.25897
thorax -24.2862 -1.95694 -0.637767
lowerneck -9.87419 10.4933 1.87781
upperneck -35.139 11.4524 -12.9887
head -8.54497 6.39834 -5.22285
rclavicle -7.31528e-014 -3.97569e-015
rhumerus 71.3821 -20.3362 -66.512
rradius 118.754
rwrist 21.9995
rhand 56.6993 -15.3213
rfingers 7.12502
rthumb 73.5704 6.06803
lclavicle -7.31528e-014 -3.97569e-015
lhumerus 42.717 -47.4117 82.552
lradius 103.276
lwrist -73.3729
lhand 50.1124 62.7689
lfingers 7.12502
lthumb 70.0251 58.4238
rfemur -115.097 -14.3425 29.7917
rtibia 91.9924
rfoot 35.8933 14.7073
rtoes 6.74363
lfemur -81.4602 -13.8093 -19.9608
ltibia 85.8125
lfoot -26.6677 24.6065
ltoes 4.81494
447
root 20.4224 13.0044 -13.4449 27.4991 -22.6226 3.8468
lowerback 43.331 -2.12252 -2.59953
upperback -2.05613 -5.23143 -4.23515
thorax -24.3957 -1.94691 -0.689522
lowerneck -9.70607 10.4564 1.92738
upperneck -35.4684 11.3428 -13.1321
head -8.68697 6.35658 -5.31654
rclavicle -4.77083e-015 -1.59028e-014
rhumerus 70.7727 -20.2649 -66.4807
rradius 119.27
rwrist 21.9448
rhand 56.6483 -15.2708
rfingers 7.12502
rthumb 73.5499 5.96024
lclavicle -4.77083e-015 -1.59028e-014
lhumerus 42.6965 -47.3784 82.4819
lradius 103.248
lwrist -73.3259
lhand 50.2624 63.0728
lfingers 7.12502
lthumb 70.1225 58.4131
rfemur -114.91 -14.2568 29.8628
rtibia 91.8965
rfoot 35.7027 15.1988
rtoes 6.06509
lfemur -81.4 -13.6933 -19.8519
ltibia 85.7461
lfoot -26.932 24.3973
ltoes 3.79902
448
root 20.4219 13.0128 -13.4448 27.4378 -22.5271 3.8148
lowerback 43.4575 -2.19196 -2.47942
upperback -2.0616 -5.25553 -4.20308
thorax -24.4609 -1.96447 -0.698567
lowerneck -9.49189 10.3891 1.9446
upperneck -35.8171 11.2088 -13.1956
head -8.8566 6.2996 -5.38359
rclavicle 2.54444e-014 -2.38542e-015
rhumerus 70.1471 -20.263 -66.5013
rradius 119.99
rwrist 21.983
rhand 56.6127 -15.1777
rfingers 7.12502
rthumb 73.5355 5.94333
lclavicle 2.54444e-014 -2.38542e-015
lhumerus 42.6266 -47.2424 82.4917
lradius 103.29
lwrist -73.3434
lhand 50.8434 63.011
lfingers 7.12502
lthumb 70.4937 57.1026
rfemur -114.775 -14.3431 29.8524
rtibia 91.8796
rfoot 35.6512 15.2797
rtoes 6.27033
lfemur -81.2607 -13.7362 -19.814
ltibia 85.6542
lfoot -26.8744 24.4399
ltoes 2.5625
